<svg width="29" height="30" viewBox="0 0 29 30" fill="none" xmlns="http://www.w3.org/2000/svg">
<path d="M14.717 14.0439C14.572 14.0235 14.4243 14.0466 14.2925 14.1102C14.1607 14.1739 14.0507 14.2752 13.9764 14.4014C13.9021 14.5277 13.8669 14.6731 13.8752 14.8194C13.8835 14.9656 13.9349 15.1061 14.023 15.2231C14.1111 15.3401 14.2318 15.4283 14.37 15.4766C14.5082 15.5249 14.6576 15.5311 14.7993 15.4945C14.941 15.4578 15.0686 15.3799 15.1661 15.2706C15.2635 15.1613 15.3264 15.0255 15.3468 14.8804C15.3741 14.6859 15.3231 14.4885 15.205 14.3316C15.0869 14.1747 14.9113 14.0712 14.717 14.0439Z" fill="white"/>
<path d="M19.1511 23.2642C19.268 23.4195 19.4143 23.5502 19.5817 23.6489C19.7491 23.7475 19.9342 23.8123 20.1266 23.8393C20.319 23.8664 20.5148 23.8553 20.7029 23.8066C20.8909 23.7579 21.0676 23.6726 21.2227 23.5556C21.3779 23.4386 21.5085 23.2921 21.6071 23.1246C21.7057 22.957 21.7703 22.7717 21.7974 22.5792C21.8244 22.3866 21.8133 22.1906 21.7646 22.0024C21.716 21.8141 21.6308 21.6373 21.5139 21.482L19.3555 18.6151C18.6475 17.6743 18.3418 16.4906 18.5056 15.3243C18.6693 14.1579 19.2892 13.1044 20.2288 12.3954L23.0931 10.235C23.2482 10.118 23.3788 9.97157 23.4774 9.80403C23.576 9.6365 23.6407 9.45117 23.6677 9.25862C23.6947 9.06607 23.6836 8.87008 23.635 8.68183C23.5863 8.49358 23.5011 8.31677 23.3842 8.16148C23.2673 8.00619 23.121 7.87548 22.9536 7.77679C22.7862 7.67811 22.6011 7.61339 22.4087 7.58632C22.2163 7.55926 22.0205 7.57039 21.8324 7.61908C21.6444 7.66776 21.4677 7.75304 21.3126 7.87006L18.4483 10.0304C17.5084 10.7391 16.3258 11.0451 15.1605 10.8811C13.9953 10.7172 12.9427 10.0968 12.2344 9.15632L10.076 6.2894C9.83991 5.97578 9.489 5.7689 9.10049 5.71424C8.71198 5.65959 8.3177 5.76165 8.00437 5.99798C7.69104 6.23431 7.48435 6.58554 7.42975 6.97441C7.37514 7.36328 7.47711 7.75793 7.71322 8.07154L9.8716 10.9385C10.5796 11.8792 10.8853 13.0629 10.7215 14.2293C10.5577 15.3956 9.93791 16.4491 8.99829 17.1581L6.13402 19.3185C5.97888 19.4355 5.84828 19.582 5.74969 19.7495C5.65109 19.9171 5.58643 20.1024 5.5594 20.295C5.53236 20.4875 5.54348 20.6835 5.59212 20.8717C5.64076 21.06 5.72596 21.2368 5.84287 21.3921C5.95978 21.5474 6.10611 21.6781 6.27349 21.7768C6.44087 21.8755 6.62602 21.9402 6.81839 21.9672C7.01076 21.9943 7.20657 21.9832 7.39465 21.9345C7.58272 21.8858 7.75937 21.8005 7.91452 21.6835L10.7788 19.5231C11.7187 18.8145 12.9013 18.5085 14.0666 18.6724C15.2318 18.8363 16.2843 19.4568 16.9927 20.3973L19.1511 23.2642ZM14.3053 16.9758C13.8707 16.9147 13.4639 16.7259 13.1365 16.4334C12.8091 16.1409 12.5757 15.7578 12.4658 15.3325C12.3559 14.9072 12.3745 14.4588 12.5192 14.0441C12.6639 13.6294 12.9282 13.2669 13.2787 13.0025C13.6292 12.7382 14.0501 12.5838 14.4883 12.5589C14.9265 12.534 15.3622 12.6397 15.7403 12.8626C16.1185 13.0856 16.4221 13.4158 16.6128 13.8114C16.8034 14.2071 16.8726 14.6505 16.8115 15.0855C16.7291 15.6687 16.4187 16.1954 15.9486 16.5498C15.4785 16.9042 14.8881 17.0575 14.3053 16.9758Z" fill="white"/>
<path d="M20.4212 6.68839C21.0477 6.21572 21.8362 6.01152 22.6131 6.12072C23.39 6.22992 24.0918 6.64357 24.5641 7.27067C25.0363 7.89777 25.2403 8.68695 25.1312 9.46461C25.0221 10.2423 24.6088 10.9447 23.9823 11.4174L21.4072 13.3597C22.4526 13.7014 23.5797 13.7004 24.6245 13.3569C25.6693 13.0134 26.5774 12.3452 27.2167 11.4495C27.856 10.5538 28.1932 9.4774 28.1792 8.37672C28.1652 7.27604 27.8008 6.20852 27.139 5.3294C26.4771 4.45029 25.5524 3.80543 24.4992 3.48859C23.4459 3.17175 22.3192 3.19946 21.2828 3.56769C20.2464 3.93592 19.3544 4.62547 18.7365 5.53605C18.1186 6.44664 17.807 7.53078 17.847 8.63082L20.4212 6.68839Z" fill="white"/>
<path d="M21.6699 18.0623C21.3665 18.0193 21.0599 18.0032 20.7537 18.0143L22.6943 20.5908C23.1665 21.2179 23.3705 22.0071 23.2614 22.7848C23.1523 23.5624 22.7391 24.2648 22.1125 24.7375C21.486 25.2102 20.6976 25.4144 19.9206 25.3052C19.1437 25.196 18.4419 24.7823 17.9697 24.1552L16.0292 21.5777C15.6975 22.5888 15.6848 23.6775 15.9928 24.696C16.3008 25.7145 16.9145 26.6135 17.7507 27.2707C18.5868 27.928 19.6048 28.3117 20.6664 28.3697C21.728 28.4277 22.7817 28.1573 23.6844 27.5951C24.5871 27.0329 25.295 26.2061 25.7119 25.2273C26.1289 24.2484 26.2347 23.1647 26.015 22.1236C25.7953 21.0824 25.2607 20.1341 24.4839 19.4076C23.707 18.6811 22.7256 18.2115 21.6729 18.0627L21.6699 18.0623Z" fill="white"/>
<path d="M7.55707 11.4922C7.86048 11.5352 8.16708 11.5513 8.47331 11.5402L6.53282 8.96273C6.07061 8.33512 5.87439 7.55034 5.98678 6.7788C6.09917 6.00725 6.51109 5.31123 7.1331 4.84184C7.75511 4.37245 8.537 4.1676 9.309 4.27176C10.081 4.37592 10.7808 4.78069 11.2564 5.39817L13.1969 7.97569C13.5286 6.96465 13.5413 5.87592 13.2333 4.8574C12.9253 3.83888 12.3116 2.93994 11.4754 2.28269C10.6393 1.62543 9.62127 1.24174 8.55969 1.18371C7.49811 1.12568 6.44441 1.39614 5.54173 1.95835C4.63905 2.52056 3.93115 3.34726 3.51418 4.32615C3.09722 5.30505 2.99141 6.38868 3.21112 7.42986C3.43083 8.47104 3.96541 9.41929 4.74225 10.1458C5.51909 10.8723 6.50053 11.3419 7.55325 11.4907L7.55707 11.4922Z" fill="white"/>
<path d="M8.80476 22.866C8.49454 23.1 8.1413 23.2706 7.76521 23.368C7.38913 23.4654 6.99755 23.4877 6.61285 23.4336C6.22815 23.3796 5.85786 23.2502 5.52312 23.0529C5.18837 22.8556 4.89573 22.5942 4.66191 22.2837C4.42808 21.9732 4.25765 21.6196 4.16033 21.2432C4.06302 20.8667 4.04074 20.4748 4.09476 20.0897C4.14878 19.7047 4.27804 19.3341 4.47516 18.999C4.67229 18.664 4.93342 18.371 5.24364 18.137L7.81976 16.1948C6.77435 15.8531 5.64728 15.8541 4.60246 16.1976C3.55764 16.5411 2.64955 17.2093 2.01024 18.105C1.37093 19.0006 1.03375 20.0771 1.04773 21.1778C1.06171 22.2785 1.42612 23.346 2.08797 24.2251C2.74981 25.1042 3.67458 25.7491 4.72779 26.0659C5.781 26.3828 6.90772 26.3551 7.94411 25.9868C8.98051 25.6186 9.87252 24.929 10.4904 24.0185C11.1083 23.1079 11.4199 22.0237 11.3799 20.9237L8.80476 22.866Z" fill="white"/>
</svg>
